<mxfile host="app.diagrams.net" agent="Mozilla/5.0 (Windows NT 10.0; Win64; x64) AppleWebKit/537.36 (KHTML, like Gecko) Chrome/136.0.0.0 Safari/537.36" version="27.0.9">
  <diagram name="페이지-1" id="K9mgIwkMvhGWCAWn6YUX">
    <mxGraphModel dx="1213" dy="730" grid="1" gridSize="10" guides="1" tooltips="1" connect="1" arrows="1" fold="1" page="1" pageScale="1" pageWidth="827" pageHeight="1169" math="0" shadow="0">
      <root>
        <mxCell id="0" />
        <mxCell id="1" parent="0" />
        <mxCell id="JojtTVNAp4EyLx_Ljhqg-1" value="KOSA서점" style="shape=umlFrame;whiteSpace=wrap;html=1;pointerEvents=0;" vertex="1" parent="1">
          <mxGeometry x="440" y="20" width="530" height="600" as="geometry" />
        </mxCell>
        <mxCell id="JojtTVNAp4EyLx_Ljhqg-2" value="?할인가로 조회하기" style="ellipse;whiteSpace=wrap;html=1;" vertex="1" parent="1">
          <mxGeometry x="830" y="562.5" width="110" height="30" as="geometry" />
        </mxCell>
        <mxCell id="JojtTVNAp4EyLx_Ljhqg-3" value="isbn 검색하기" style="ellipse;whiteSpace=wrap;html=1;" vertex="1" parent="1">
          <mxGeometry x="550" y="150" width="110" height="30" as="geometry" />
        </mxCell>
        <mxCell id="JojtTVNAp4EyLx_Ljhqg-4" value="전체책 목록 조회하기" style="ellipse;whiteSpace=wrap;html=1;" vertex="1" parent="1">
          <mxGeometry x="530" y="80" width="120" height="30" as="geometry" />
        </mxCell>
        <mxCell id="JojtTVNAp4EyLx_Ljhqg-5" value="신규로 책 등록하기" style="ellipse;whiteSpace=wrap;html=1;" vertex="1" parent="1">
          <mxGeometry x="510" y="287.5" width="110" height="30" as="geometry" />
        </mxCell>
        <mxCell id="JojtTVNAp4EyLx_Ljhqg-6" value="저자로 검색하기" style="ellipse;whiteSpace=wrap;html=1;" vertex="1" parent="1">
          <mxGeometry x="830" y="377.5" width="110" height="30" as="geometry" />
        </mxCell>
        <mxCell id="JojtTVNAp4EyLx_Ljhqg-7" value="특정한 책 삭제하기" style="ellipse;whiteSpace=wrap;html=1;" vertex="1" parent="1">
          <mxGeometry x="550" y="200" width="110" height="30" as="geometry" />
        </mxCell>
        <mxCell id="JojtTVNAp4EyLx_Ljhqg-8" value="제목으로 검색하기" style="ellipse;whiteSpace=wrap;html=1;" vertex="1" parent="1">
          <mxGeometry x="830" y="317.5" width="110" height="30" as="geometry" />
        </mxCell>
        <mxCell id="JojtTVNAp4EyLx_Ljhqg-9" value="책 검색하기" style="ellipse;whiteSpace=wrap;html=1;" vertex="1" parent="1">
          <mxGeometry x="530" y="440" width="110" height="30" as="geometry" />
        </mxCell>
        <mxCell id="JojtTVNAp4EyLx_Ljhqg-10" value="가격대별로 검색하기" style="ellipse;whiteSpace=wrap;html=1;" vertex="1" parent="1">
          <mxGeometry x="820" y="427.5" width="130" height="30" as="geometry" />
        </mxCell>
        <mxCell id="JojtTVNAp4EyLx_Ljhqg-11" value="출판사로 검색하기" style="ellipse;whiteSpace=wrap;html=1;" vertex="1" parent="1">
          <mxGeometry x="830" y="487.5" width="110" height="30" as="geometry" />
        </mxCell>
        <mxCell id="JojtTVNAp4EyLx_Ljhqg-15" value="&lt;font style=&quot;font-size: 14px;&quot;&gt;도서관리자&lt;/font&gt;" style="shape=umlActor;verticalLabelPosition=bottom;verticalAlign=top;html=1;" vertex="1" parent="1">
          <mxGeometry x="190" y="190" width="80" height="70" as="geometry" />
        </mxCell>
        <mxCell id="JojtTVNAp4EyLx_Ljhqg-16" value="&lt;font style=&quot;font-size: 14px;&quot;&gt;사용자&lt;/font&gt;" style="shape=umlActor;verticalLabelPosition=bottom;verticalAlign=top;html=1;" vertex="1" parent="1">
          <mxGeometry x="40" y="297.5" width="80" height="70" as="geometry" />
        </mxCell>
        <mxCell id="JojtTVNAp4EyLx_Ljhqg-17" value="&lt;font style=&quot;font-size: 14px;&quot;&gt;일반사용자&lt;/font&gt;" style="shape=umlActor;verticalLabelPosition=bottom;verticalAlign=top;html=1;" vertex="1" parent="1">
          <mxGeometry x="190" y="387.5" width="80" height="70" as="geometry" />
        </mxCell>
        <mxCell id="JojtTVNAp4EyLx_Ljhqg-20" value="Extends" style="endArrow=block;endSize=16;endFill=0;html=1;rounded=0;exitX=0;exitY=0.5;exitDx=0;exitDy=0;entryX=1;entryY=0.5;entryDx=0;entryDy=0;" edge="1" parent="1" source="JojtTVNAp4EyLx_Ljhqg-8" target="JojtTVNAp4EyLx_Ljhqg-9">
          <mxGeometry width="160" relative="1" as="geometry">
            <mxPoint x="565" y="440" as="sourcePoint" />
            <mxPoint x="680" y="360" as="targetPoint" />
          </mxGeometry>
        </mxCell>
        <mxCell id="JojtTVNAp4EyLx_Ljhqg-21" value="Extends" style="endArrow=block;endSize=16;endFill=0;html=1;rounded=0;exitX=0;exitY=0.5;exitDx=0;exitDy=0;entryX=1;entryY=0.5;entryDx=0;entryDy=0;" edge="1" parent="1" source="JojtTVNAp4EyLx_Ljhqg-11" target="JojtTVNAp4EyLx_Ljhqg-9">
          <mxGeometry width="160" relative="1" as="geometry">
            <mxPoint x="590" y="524" as="sourcePoint" />
            <mxPoint x="596" y="430" as="targetPoint" />
          </mxGeometry>
        </mxCell>
        <mxCell id="JojtTVNAp4EyLx_Ljhqg-22" value="Extends" style="endArrow=block;endSize=16;endFill=0;html=1;rounded=0;entryX=1;entryY=0.5;entryDx=0;entryDy=0;exitX=0;exitY=0.5;exitDx=0;exitDy=0;" edge="1" parent="1" source="JojtTVNAp4EyLx_Ljhqg-10" target="JojtTVNAp4EyLx_Ljhqg-9">
          <mxGeometry width="160" relative="1" as="geometry">
            <mxPoint x="835" y="350" as="sourcePoint" />
            <mxPoint x="720" y="390" as="targetPoint" />
          </mxGeometry>
        </mxCell>
        <mxCell id="JojtTVNAp4EyLx_Ljhqg-23" value="Extends" style="endArrow=block;endSize=16;endFill=0;html=1;rounded=0;exitX=0;exitY=0.5;exitDx=0;exitDy=0;entryX=1;entryY=0.5;entryDx=0;entryDy=0;" edge="1" parent="1" source="JojtTVNAp4EyLx_Ljhqg-6" target="JojtTVNAp4EyLx_Ljhqg-9">
          <mxGeometry x="-0.0586" y="-16" width="160" relative="1" as="geometry">
            <mxPoint x="735" y="310" as="sourcePoint" />
            <mxPoint x="640" y="310" as="targetPoint" />
            <mxPoint as="offset" />
          </mxGeometry>
        </mxCell>
        <mxCell id="JojtTVNAp4EyLx_Ljhqg-26" style="rounded=0;orthogonalLoop=1;jettySize=auto;html=1;endArrow=none;startFill=0;entryX=0;entryY=0.5;entryDx=0;entryDy=0;exitX=1;exitY=0.3333333333333333;exitDx=0;exitDy=0;exitPerimeter=0;" edge="1" parent="1" source="JojtTVNAp4EyLx_Ljhqg-15" target="JojtTVNAp4EyLx_Ljhqg-9">
          <mxGeometry relative="1" as="geometry">
            <mxPoint x="210" y="140" as="sourcePoint" />
          </mxGeometry>
        </mxCell>
        <mxCell id="JojtTVNAp4EyLx_Ljhqg-28" value="Include" style="endArrow=block;endSize=16;endFill=0;html=1;rounded=0;exitX=0.5;exitY=0;exitDx=0;exitDy=0;" edge="1" parent="1" source="JojtTVNAp4EyLx_Ljhqg-9" target="JojtTVNAp4EyLx_Ljhqg-5">
          <mxGeometry x="-0.4067" y="-4" width="160" relative="1" as="geometry">
            <mxPoint x="510" y="580" as="sourcePoint" />
            <mxPoint x="670" y="580" as="targetPoint" />
            <mxPoint as="offset" />
          </mxGeometry>
        </mxCell>
        <mxCell id="JojtTVNAp4EyLx_Ljhqg-34" style="rounded=0;orthogonalLoop=1;jettySize=auto;html=1;endArrow=none;startFill=0;exitX=1;exitY=0.3333333333333333;exitDx=0;exitDy=0;exitPerimeter=0;entryX=0;entryY=0.5;entryDx=0;entryDy=0;" edge="1" parent="1" source="JojtTVNAp4EyLx_Ljhqg-15" target="JojtTVNAp4EyLx_Ljhqg-5">
          <mxGeometry relative="1" as="geometry">
            <mxPoint x="100" y="350" as="sourcePoint" />
            <mxPoint x="414" y="413" as="targetPoint" />
          </mxGeometry>
        </mxCell>
        <mxCell id="JojtTVNAp4EyLx_Ljhqg-35" style="rounded=0;orthogonalLoop=1;jettySize=auto;html=1;endArrow=none;startFill=0;entryX=0;entryY=0.5;entryDx=0;entryDy=0;exitX=1;exitY=0.3333333333333333;exitDx=0;exitDy=0;exitPerimeter=0;" edge="1" parent="1" source="JojtTVNAp4EyLx_Ljhqg-15" target="JojtTVNAp4EyLx_Ljhqg-7">
          <mxGeometry relative="1" as="geometry">
            <mxPoint x="100" y="350" as="sourcePoint" />
            <mxPoint x="420" y="581" as="targetPoint" />
          </mxGeometry>
        </mxCell>
        <mxCell id="JojtTVNAp4EyLx_Ljhqg-36" style="rounded=0;orthogonalLoop=1;jettySize=auto;html=1;endArrow=none;startFill=0;exitX=1;exitY=0.3333333333333333;exitDx=0;exitDy=0;exitPerimeter=0;entryX=0;entryY=0.5;entryDx=0;entryDy=0;strokeColor=#0005FF;" edge="1" parent="1" source="JojtTVNAp4EyLx_Ljhqg-17" target="JojtTVNAp4EyLx_Ljhqg-9">
          <mxGeometry relative="1" as="geometry">
            <mxPoint x="210" y="479" as="sourcePoint" />
            <mxPoint x="458" y="690" as="targetPoint" />
          </mxGeometry>
        </mxCell>
        <mxCell id="JojtTVNAp4EyLx_Ljhqg-38" value="Include" style="endArrow=block;endSize=16;endFill=0;html=1;rounded=0;entryX=0.5;entryY=0;entryDx=0;entryDy=0;" edge="1" parent="1" source="JojtTVNAp4EyLx_Ljhqg-7" target="JojtTVNAp4EyLx_Ljhqg-5">
          <mxGeometry x="-0.1111" y="-5" width="160" relative="1" as="geometry">
            <mxPoint x="620" y="280" as="sourcePoint" />
            <mxPoint x="620" y="390" as="targetPoint" />
            <mxPoint as="offset" />
          </mxGeometry>
        </mxCell>
        <mxCell id="JojtTVNAp4EyLx_Ljhqg-42" value="Extends" style="endArrow=block;endSize=16;endFill=0;html=1;rounded=0;exitX=0;exitY=0.5;exitDx=0;exitDy=0;entryX=1;entryY=0.5;entryDx=0;entryDy=0;" edge="1" parent="1" source="JojtTVNAp4EyLx_Ljhqg-2" target="JojtTVNAp4EyLx_Ljhqg-9">
          <mxGeometry width="160" relative="1" as="geometry">
            <mxPoint x="820" y="360" as="sourcePoint" />
            <mxPoint x="640" y="80" as="targetPoint" />
          </mxGeometry>
        </mxCell>
        <mxCell id="JojtTVNAp4EyLx_Ljhqg-44" style="rounded=0;orthogonalLoop=1;jettySize=auto;html=1;endArrow=none;startFill=0;entryX=0;entryY=0.5;entryDx=0;entryDy=0;exitX=1;exitY=0.3333333333333333;exitDx=0;exitDy=0;exitPerimeter=0;" edge="1" parent="1" source="JojtTVNAp4EyLx_Ljhqg-15" target="JojtTVNAp4EyLx_Ljhqg-3">
          <mxGeometry relative="1" as="geometry">
            <mxPoint x="330" y="120" as="sourcePoint" />
            <mxPoint x="600" y="152" as="targetPoint" />
          </mxGeometry>
        </mxCell>
        <mxCell id="JojtTVNAp4EyLx_Ljhqg-45" style="rounded=0;orthogonalLoop=1;jettySize=auto;html=1;endArrow=none;startFill=0;entryX=0;entryY=0.5;entryDx=0;entryDy=0;exitX=1;exitY=0.3333333333333333;exitDx=0;exitDy=0;exitPerimeter=0;" edge="1" parent="1" source="JojtTVNAp4EyLx_Ljhqg-15" target="JojtTVNAp4EyLx_Ljhqg-4">
          <mxGeometry relative="1" as="geometry">
            <mxPoint x="250" y="110" as="sourcePoint" />
            <mxPoint x="510" y="52" as="targetPoint" />
          </mxGeometry>
        </mxCell>
      </root>
    </mxGraphModel>
  </diagram>
</mxfile>
